<svg width="94" height="94" viewBox="0 0 94 94" fill="none" xmlns="http://www.w3.org/2000/svg">
<path d="M49.1474 59.8468C51.7834 56.4804 57.1525 59.0413 56.1952 63.2084L50.7998 86.6951C50.2266 89.19 47.4899 90.5119 45.1793 89.4099L35.7176 84.8968C33.407 83.7948 32.712 80.836 34.2902 78.8204L49.1474 59.8468Z" fill="url(#paint0_radial_7_2)"/>
<path d="M34.2585 49.2899C37.6569 51.8845 35.1619 57.2845 30.9833 56.3783L7.43249 51.2706C4.93069 50.728 3.57542 48.0076 4.64916 45.6837L9.04609 36.1675C10.1198 33.8436 13.0699 33.1125 15.1046 34.6659L34.2585 49.2899Z" fill="url(#paint1_radial_7_2)"/>
<path d="M59.8571 44.9097C56.4907 42.2736 59.0516 36.9046 63.2188 37.8619L86.7054 43.2573C89.2004 43.8304 90.5223 46.5672 89.4202 48.8778L84.9072 58.3395C83.8051 60.6501 80.8463 61.3451 78.8308 59.7668L59.8571 44.9097Z" fill="url(#paint2_radial_7_2)"/>
<path d="M44.9391 34.2057C42.303 37.5721 36.934 35.0112 37.8912 30.844L43.2866 7.35736C43.8598 4.86239 46.5966 3.54049 48.9072 4.64258L58.3689 9.15559C60.6794 10.2577 61.3745 13.2165 59.7962 15.232L44.9391 34.2057Z" fill="url(#paint3_radial_7_2)"/>
<path d="M39.6282 57.6981C43.8638 57.1141 45.9385 62.6891 42.3516 65.0162L22.1351 78.1322C19.9876 79.5255 17.1021 78.5709 16.2092 76.1717L12.5531 66.347C11.6602 63.9478 13.2196 61.339 15.7556 60.9894L39.6282 57.6981Z" fill="url(#paint4_radial_7_2)"/>
<path d="M54.4426 36.3466C50.207 36.9305 48.1323 31.3555 51.7192 29.0284L71.9357 15.9124C74.0832 14.5191 76.9687 15.4738 77.8616 17.873L81.5177 27.6976C82.4106 30.0968 80.8512 32.7056 78.3152 33.0552L54.4426 36.3466Z" fill="url(#paint5_radial_7_2)"/>
<path d="M36.5483 39.3879C37.0408 43.6351 31.4223 45.5891 29.1731 41.9528L16.4962 21.4582C15.1495 19.2811 16.1662 16.4168 18.5841 15.576L28.4853 12.1326C30.9033 11.2917 33.4778 12.907 33.7726 15.4499L36.5483 39.3879Z" fill="url(#paint6_radial_7_2)"/>
<path d="M57.5669 54.6549C57.0745 50.4076 62.6929 48.4537 64.9422 52.09L77.619 72.5846C78.9657 74.7617 77.949 77.6259 75.5311 78.4668L65.6299 81.9102C63.212 82.7511 60.6374 81.1358 60.3426 78.5929L57.5669 54.6549Z" fill="url(#paint7_radial_7_2)"/>
<path fill-rule="evenodd" clip-rule="evenodd" d="M53.8541 44.1716L52.4089 45.6492C53.1386 46.3952 53.1386 47.6048 52.4089 48.3508C51.6792 49.0969 50.4961 49.0969 49.7664 48.3508L48.4452 47L47 45.5224L45.6788 44.1716C44.1509 42.6095 41.6738 42.6095 40.1459 44.1716C38.618 45.7337 38.618 48.2663 40.1459 49.8284L41.5911 48.3508C40.8614 47.6048 40.8614 46.3952 41.5911 45.6492C42.3208 44.9031 43.5039 44.9031 44.2336 45.6492L45.5548 47L47 48.4776L48.3212 49.8284C49.8491 51.3905 52.3262 51.3905 53.8541 49.8284C55.382 48.2663 55.382 45.7337 53.8541 44.1716Z" fill="white"/>
<path d="M53.8541 44.1716C52.3262 42.6095 49.8491 42.6095 48.3212 44.1716L47 45.5224M53.8541 44.1716C55.382 45.7337 55.382 48.2663 53.8541 49.8284C52.3262 51.3905 49.8491 51.3905 48.3212 49.8284L47 48.4776M53.8541 44.1716L52.4089 45.6492M47 48.4776L45.6788 49.8284C44.1509 51.3905 41.6738 51.3905 40.1459 49.8284M47 48.4776L45.5548 47M40.1459 49.8284C38.618 48.2663 38.618 45.7337 40.1459 44.1716C41.6738 42.6095 44.1509 42.6095 45.6788 44.1716L47 45.5224M40.1459 49.8284L41.5911 48.3508M47 45.5224L48.4452 47M48.4452 47L49.7664 48.3508C50.4961 49.0969 51.6792 49.0969 52.4089 48.3508C53.1386 47.6048 53.1386 46.3952 52.4089 45.6492M48.4452 47L49.7664 45.6492C50.4961 44.9031 51.6792 44.9031 52.4089 45.6492M45.5548 47L44.2336 45.6492C43.5039 44.9031 42.3208 44.9031 41.5911 45.6492C40.8614 46.3952 40.8614 47.6048 41.5911 48.3508M45.5548 47L44.2336 48.3508C43.5039 49.0969 42.3208 49.0969 41.5911 48.3508" stroke="white" stroke-width="0.3"/>
<defs>
<radialGradient id="paint0_radial_7_2" cx="0" cy="0" r="1" gradientUnits="userSpaceOnUse" gradientTransform="translate(47.0001 47) rotate(90) scale(50.5 50.49)">
<stop offset="0.0001" stop-color="#9458FF"/>
<stop offset="1" stop-color="#160027"/>
</radialGradient>
<radialGradient id="paint1_radial_7_2" cx="0" cy="0" r="1" gradientUnits="userSpaceOnUse" gradientTransform="translate(47.0001 47) rotate(90) scale(50.5 50.49)">
<stop offset="0.0001" stop-color="#9458FF"/>
<stop offset="1" stop-color="#160027"/>
</radialGradient>
<radialGradient id="paint2_radial_7_2" cx="0" cy="0" r="1" gradientUnits="userSpaceOnUse" gradientTransform="translate(47.0001 47) rotate(90) scale(50.5 50.49)">
<stop offset="0.0001" stop-color="#9458FF"/>
<stop offset="1" stop-color="#160027"/>
</radialGradient>
<radialGradient id="paint3_radial_7_2" cx="0" cy="0" r="1" gradientUnits="userSpaceOnUse" gradientTransform="translate(47.0001 47) rotate(90) scale(50.5 50.49)">
<stop offset="0.0001" stop-color="#9458FF"/>
<stop offset="1" stop-color="#160027"/>
</radialGradient>
<radialGradient id="paint4_radial_7_2" cx="0" cy="0" r="1" gradientUnits="userSpaceOnUse" gradientTransform="translate(47.0001 47) rotate(90) scale(50.5 50.49)">
<stop offset="0.0001" stop-color="#9458FF"/>
<stop offset="1" stop-color="#160027"/>
</radialGradient>
<radialGradient id="paint5_radial_7_2" cx="0" cy="0" r="1" gradientUnits="userSpaceOnUse" gradientTransform="translate(47.0001 47) rotate(90) scale(50.5 50.49)">
<stop offset="0.0001" stop-color="#9458FF"/>
<stop offset="1" stop-color="#160027"/>
</radialGradient>
<radialGradient id="paint6_radial_7_2" cx="0" cy="0" r="1" gradientUnits="userSpaceOnUse" gradientTransform="translate(47.0001 47) rotate(90) scale(50.5 50.49)">
<stop offset="0.0001" stop-color="#9458FF"/>
<stop offset="1" stop-color="#160027"/>
</radialGradient>
<radialGradient id="paint7_radial_7_2" cx="0" cy="0" r="1" gradientUnits="userSpaceOnUse" gradientTransform="translate(47.0001 47) rotate(90) scale(50.5 50.49)">
<stop offset="0.0001" stop-color="#9458FF"/>
<stop offset="1" stop-color="#160027"/>
</radialGradient>
</defs>
</svg>
