<svg width="94" height="94" viewBox="0 0 94 94" fill="none" xmlns="http://www.w3.org/2000/svg">
<path d="M49.1474 59.8468C51.7834 56.4804 57.1525 59.0413 56.1952 63.2084L50.7998 86.6951C50.2266 89.19 47.4899 90.5119 45.1793 89.4099L35.7176 84.8968C33.407 83.7948 32.712 80.836 34.2902 78.8204L49.1474 59.8468Z" fill="url(#paint0_radial_14_2)"/>
<path d="M34.2585 49.2899C37.6569 51.8845 35.1619 57.2845 30.9833 56.3783L7.43249 51.2706C4.93069 50.728 3.57542 48.0076 4.64916 45.6837L9.04609 36.1675C10.1198 33.8436 13.0699 33.1125 15.1046 34.6659L34.2585 49.2899Z" fill="url(#paint1_radial_14_2)"/>
<path d="M59.8571 44.9097C56.4907 42.2736 59.0516 36.9046 63.2188 37.8619L86.7054 43.2573C89.2004 43.8304 90.5223 46.5672 89.4202 48.8778L84.9072 58.3395C83.8051 60.6501 80.8463 61.3451 78.8308 59.7668L59.8571 44.9097Z" fill="url(#paint2_radial_14_2)"/>
<path d="M44.9391 34.2057C42.303 37.5721 36.934 35.0112 37.8912 30.844L43.2866 7.35736C43.8598 4.86239 46.5966 3.54049 48.9072 4.64258L58.3689 9.15559C60.6794 10.2577 61.3745 13.2165 59.7962 15.232L44.9391 34.2057Z" fill="url(#paint3_radial_14_2)"/>
<path d="M39.6282 57.6981C43.8638 57.1141 45.9385 62.6891 42.3516 65.0162L22.1351 78.1322C19.9876 79.5255 17.1021 78.5709 16.2092 76.1717L12.5531 66.347C11.6602 63.9478 13.2196 61.339 15.7556 60.9894L39.6282 57.6981Z" fill="url(#paint4_radial_14_2)"/>
<path d="M54.4426 36.3466C50.207 36.9305 48.1323 31.3555 51.7192 29.0284L71.9357 15.9124C74.0832 14.5191 76.9687 15.4738 77.8616 17.873L81.5177 27.6976C82.4106 30.0968 80.8512 32.7056 78.3152 33.0552L54.4426 36.3466Z" fill="url(#paint5_radial_14_2)"/>
<path d="M36.5483 39.3879C37.0408 43.6351 31.4223 45.5891 29.1731 41.9528L16.4962 21.4582C15.1495 19.2811 16.1662 16.4168 18.5841 15.576L28.4853 12.1326C30.9033 11.2917 33.4778 12.907 33.7726 15.4499L36.5483 39.3879Z" fill="url(#paint6_radial_14_2)"/>
<path d="M57.5669 54.6549C57.0745 50.4076 62.6929 48.4537 64.9422 52.09L77.619 72.5846C78.9657 74.7617 77.949 77.6259 75.5311 78.4668L65.6299 81.9102C63.212 82.7511 60.6374 81.1358 60.3426 78.5929L57.5669 54.6549Z" fill="url(#paint7_radial_14_2)"/>
<path fill-rule="evenodd" clip-rule="evenodd" d="M46.0646 39.0135C46.4369 38.97 46.8139 39.0321 47.1526 39.1925L50.9606 40.9945C51.198 41.1069 51.411 41.2649 51.5874 41.4596C51.7638 41.6543 51.9001 41.8819 51.9885 42.1293C52.0769 42.3767 52.1157 42.639 52.1027 42.9014C52.0896 43.1638 52.025 43.4211 51.9126 43.6585L50.8426 45.9185C50.6156 46.3978 50.2076 46.7674 49.7082 46.9459C49.2088 47.1244 48.659 47.0973 48.1796 46.8705L44.8376 45.2885C44.4807 45.1196 44.1819 44.8489 43.9786 44.5105L43.6286 43.9275L42.6786 44.2665C41.0016 44.8665 39.4356 43.1385 40.1986 41.5275L40.6386 40.5955C40.7837 40.2887 41.0046 40.024 41.2803 39.8261C41.556 39.6283 41.8775 39.5038 42.2146 39.4645L46.0646 39.0145V39.0135ZM50.1046 42.8035L46.2966 41.0005L42.4466 41.4505L42.0066 42.3835L42.9556 42.0435C43.391 41.8879 43.8669 41.8879 44.3023 42.0436C44.7376 42.1993 45.1056 42.501 45.3436 42.8975L45.6936 43.4805L49.0356 45.0625L50.1056 42.8025L50.1046 42.8035Z" fill="white"/>
<path fill-rule="evenodd" clip-rule="evenodd" d="M51.2226 42.7785C51.4495 42.2992 51.8576 41.9297 52.357 41.7511C52.8563 41.5726 53.4062 41.5997 53.8856 41.8265L54.7896 42.2545C55.2689 42.4815 55.6385 42.8895 55.817 43.3889C55.9955 43.8883 55.9684 44.4382 55.7416 44.9175L54.0316 48.5335C53.9192 48.771 53.7612 48.984 53.5665 49.1604C53.3717 49.3367 53.1442 49.473 52.8968 49.5614C52.6494 49.6498 52.387 49.6886 52.1246 49.6756C51.8623 49.6626 51.605 49.598 51.3676 49.4855L50.4636 49.0575C49.9843 48.8306 49.6147 48.4226 49.4362 47.9232C49.2576 47.4238 49.2848 46.8739 49.5116 46.3945L51.2226 42.7785ZM53.9346 44.0625L53.0306 43.6345L51.3186 47.2495L52.2226 47.6775L53.9346 44.0625ZM46.5856 45.5625L42.7356 53.6975L43.6396 54.1255L47.4896 45.9905L49.2976 46.8465L45.4476 54.9805C45.3352 55.218 45.1772 55.431 44.9825 55.6074C44.7877 55.7837 44.5602 55.92 44.3128 56.0084C44.0654 56.0968 43.803 56.1356 43.5406 56.1226C43.2783 56.1096 43.021 56.045 42.7836 55.9325L41.8796 55.5055C41.6421 55.3932 41.4291 55.2351 41.2527 55.0404C41.0764 54.8457 40.9401 54.6182 40.8517 54.3708C40.7633 54.1234 40.7245 53.861 40.7375 53.5986C40.7505 53.3362 40.8151 53.079 40.9276 52.8415L44.7776 44.7065L46.5856 45.5625Z" fill="white"/>
<defs>
<radialGradient id="paint0_radial_14_2" cx="0" cy="0" r="1" gradientUnits="userSpaceOnUse" gradientTransform="translate(47.0001 47) rotate(90) scale(50.5 50.49)">
<stop stop-color="#FF0B0B"/>
<stop offset="1" stop-color="#270000"/>
</radialGradient>
<radialGradient id="paint1_radial_14_2" cx="0" cy="0" r="1" gradientUnits="userSpaceOnUse" gradientTransform="translate(47.0001 47) rotate(90) scale(50.5 50.49)">
<stop stop-color="#FF0B0B"/>
<stop offset="1" stop-color="#270000"/>
</radialGradient>
<radialGradient id="paint2_radial_14_2" cx="0" cy="0" r="1" gradientUnits="userSpaceOnUse" gradientTransform="translate(47.0001 47) rotate(90) scale(50.5 50.49)">
<stop stop-color="#FF0B0B"/>
<stop offset="1" stop-color="#270000"/>
</radialGradient>
<radialGradient id="paint3_radial_14_2" cx="0" cy="0" r="1" gradientUnits="userSpaceOnUse" gradientTransform="translate(47.0001 47) rotate(90) scale(50.5 50.49)">
<stop stop-color="#FF0B0B"/>
<stop offset="1" stop-color="#270000"/>
</radialGradient>
<radialGradient id="paint4_radial_14_2" cx="0" cy="0" r="1" gradientUnits="userSpaceOnUse" gradientTransform="translate(47.0001 47) rotate(90) scale(50.5 50.49)">
<stop stop-color="#FF0B0B"/>
<stop offset="1" stop-color="#270000"/>
</radialGradient>
<radialGradient id="paint5_radial_14_2" cx="0" cy="0" r="1" gradientUnits="userSpaceOnUse" gradientTransform="translate(47.0001 47) rotate(90) scale(50.5 50.49)">
<stop stop-color="#FF0B0B"/>
<stop offset="1" stop-color="#270000"/>
</radialGradient>
<radialGradient id="paint6_radial_14_2" cx="0" cy="0" r="1" gradientUnits="userSpaceOnUse" gradientTransform="translate(47.0001 47) rotate(90) scale(50.5 50.49)">
<stop stop-color="#FF0B0B"/>
<stop offset="1" stop-color="#270000"/>
</radialGradient>
<radialGradient id="paint7_radial_14_2" cx="0" cy="0" r="1" gradientUnits="userSpaceOnUse" gradientTransform="translate(47.0001 47) rotate(90) scale(50.5 50.49)">
<stop stop-color="#FF0B0B"/>
<stop offset="1" stop-color="#270000"/>
</radialGradient>
</defs>
</svg>
