<svg width="94" height="94" viewBox="0 0 94 94" fill="none" xmlns="http://www.w3.org/2000/svg">
<g clip-path="url(#clip0_1_2)">
<path d="M49.1474 59.8467C51.7834 56.4803 57.1525 59.0412 56.1952 63.2084L50.7998 86.695C50.2266 89.19 47.4899 90.5119 45.1793 89.4098L35.7176 84.8968C33.407 83.7947 32.712 80.8359 34.2902 78.8204L49.1474 59.8467Z" fill="url(#paint0_radial_1_2)"/>
<path d="M34.2585 49.2898C37.6569 51.8845 35.1619 57.2845 30.9833 56.3782L7.43248 51.2705C4.93069 50.7279 3.57542 48.0075 4.64916 45.6837L9.04609 36.1675C10.1198 33.8436 13.0699 33.1124 15.1046 34.6659L34.2585 49.2898Z" fill="url(#paint1_radial_1_2)"/>
<path d="M59.8571 44.9096C56.4907 42.2736 59.0516 36.9045 63.2188 37.8618L86.7054 43.2572C89.2004 43.8304 90.5223 46.5672 89.4202 48.8777L84.9072 58.3394C83.8051 60.65 80.8463 61.345 78.8308 59.7668L59.8571 44.9096Z" fill="url(#paint2_radial_1_2)"/>
<path d="M44.9391 34.2056C42.303 37.572 36.934 35.0111 37.8912 30.844L43.2866 7.35733C43.8598 4.86236 46.5966 3.54046 48.9072 4.64255L58.3689 9.15556C60.6794 10.2576 61.3744 13.2164 59.7962 15.232L44.9391 34.2056Z" fill="url(#paint3_radial_1_2)"/>
<path d="M39.6282 57.698C43.8638 57.1141 45.9385 62.6891 42.3516 65.0162L22.1351 78.1322C19.9876 79.5255 17.1021 78.5708 16.2092 76.1716L12.5531 66.347C11.6602 63.9478 13.2196 61.339 15.7556 60.9894L39.6282 57.698Z" fill="url(#paint4_radial_1_2)"/>
<path d="M54.4426 36.3465C50.207 36.9305 48.1323 31.3555 51.7192 29.0284L71.9357 15.9124C74.0832 14.5191 76.9687 15.4737 77.8616 17.8729L81.5177 27.6976C82.4106 30.0968 80.8512 32.7056 78.3152 33.0552L54.4426 36.3465Z" fill="url(#paint5_radial_1_2)"/>
<path d="M36.5483 39.3879C37.0408 43.6351 31.4223 45.5891 29.1731 41.9528L16.4962 21.4582C15.1495 19.281 16.1662 16.4168 18.5841 15.5759L28.4854 12.1325C30.9033 11.2916 33.4778 12.9069 33.7726 15.4499L36.5483 39.3879Z" fill="url(#paint6_radial_1_2)"/>
<path d="M57.5669 54.6548C57.0745 50.4076 62.693 48.4537 64.9422 52.09L77.619 72.5846C78.9657 74.7617 77.949 77.6259 75.5311 78.4668L65.6299 81.9102C63.212 82.7511 60.6374 81.1358 60.3426 78.5929L57.5669 54.6548Z" fill="url(#paint7_radial_1_2)"/>
<path d="M43.2869 53.0232C43.0416 53.0232 42.8389 52.9485 42.6789 52.7992C42.5189 52.6392 42.4389 52.4419 42.4389 52.2072V43.6312L42.6469 43.9192L41.1589 44.9592C41.0309 45.0659 40.8762 45.1192 40.6949 45.1192C40.4816 45.1192 40.2896 45.0392 40.1189 44.8792C39.9589 44.7085 39.8789 44.5112 39.8789 44.2872C39.8789 44.0099 40.0176 43.7805 40.2949 43.5992L42.7269 41.9832C42.8229 41.9192 42.9242 41.8765 43.0309 41.8552C43.1482 41.8339 43.2549 41.8232 43.3509 41.8232C43.5962 41.8232 43.7936 41.9032 43.9429 42.0632C44.0922 42.2125 44.1669 42.4045 44.1669 42.6392V52.2072C44.1669 52.4419 44.0816 52.6392 43.9109 52.7992C43.7509 52.9485 43.5429 53.0232 43.2869 53.0232ZM53.0759 51.5352C53.2892 51.5352 53.4652 51.6099 53.6039 51.7592C53.7532 51.8979 53.8279 52.0739 53.8279 52.2872C53.8279 52.5005 53.7532 52.6765 53.6039 52.8152C53.4652 52.9539 53.2892 53.0232 53.0759 53.0232H47.4599C47.2252 53.0232 47.0386 52.9539 46.8999 52.8152C46.7612 52.6765 46.6919 52.4899 46.6919 52.2552C46.6919 52.0419 46.7666 51.8499 46.9159 51.6792L50.4839 47.8232C50.9426 47.3325 51.2946 46.8472 51.5399 46.3672C51.7959 45.8872 51.9239 45.4659 51.9239 45.1032C51.9239 44.5165 51.7479 44.0419 51.3959 43.6792C51.0439 43.3165 50.5799 43.1352 50.0039 43.1352C49.7586 43.1352 49.5079 43.1939 49.2519 43.3112C49.0066 43.4179 48.7719 43.5672 48.5479 43.7592C48.3346 43.9405 48.1479 44.1539 47.9879 44.3992C47.8812 44.5485 47.7746 44.6445 47.6679 44.6872C47.5612 44.7299 47.4599 44.7512 47.3639 44.7512C47.1612 44.7512 46.9746 44.6819 46.8039 44.5432C46.6439 44.3939 46.5639 44.2232 46.5639 44.0312C46.5639 43.8819 46.6119 43.7379 46.7079 43.5992C46.8039 43.4605 46.9266 43.3165 47.0759 43.1672C47.3106 42.8792 47.5932 42.6232 47.9239 42.3992C48.2652 42.1645 48.6226 41.9832 48.9959 41.8552C49.3692 41.7272 49.7372 41.6632 50.0999 41.6632C50.8039 41.6632 51.4119 41.8019 51.9239 42.0792C52.4466 42.3565 52.8466 42.7459 53.1239 43.2472C53.4119 43.7485 53.5559 44.3405 53.5559 45.0232C53.5559 45.5992 53.3799 46.2392 53.0279 46.9432C52.6866 47.6365 52.2066 48.3192 51.5879 48.9912L49.1079 51.6952L48.9319 51.5352H53.0759Z" fill="white"/>
</g>
<defs>
<radialGradient id="paint0_radial_1_2" cx="0" cy="0" r="1" gradientUnits="userSpaceOnUse" gradientTransform="translate(58.1335 50.0758) rotate(115.5) scale(56.3833 21.762)">
<stop stop-color="#FFF500"/>
<stop offset="1" stop-color="#FF0000"/>
</radialGradient>
<radialGradient id="paint1_radial_1_2" cx="0" cy="0" r="1" gradientUnits="userSpaceOnUse" gradientTransform="translate(44.6261 58.3809) rotate(-155.201) scale(56.9201 21.9692)">
<stop stop-color="#FFF500"/>
<stop offset="1" stop-color="#FF0000"/>
</radialGradient>
<radialGradient id="paint2_radial_1_2" cx="0" cy="0" r="1" gradientUnits="userSpaceOnUse" gradientTransform="translate(49.6016 35.6924) rotate(25.5) scale(56.9202 21.9692)">
<stop stop-color="#FFF500"/>
<stop offset="1" stop-color="#FF0000"/>
</radialGradient>
<radialGradient id="paint3_radial_1_2" cx="0" cy="0" r="1" gradientUnits="userSpaceOnUse" gradientTransform="translate(35.7218 44.4613) rotate(-64.5) scale(56.9203 21.9692)">
<stop stop-color="#FFF500"/>
<stop offset="1" stop-color="#FF0000"/>
</radialGradient>
<radialGradient id="paint4_radial_1_2" cx="0" cy="0" r="1" gradientUnits="userSpaceOnUse" gradientTransform="translate(52.6685 56.9983) rotate(159.576) scale(56.161 21.6762)">
<stop stop-color="#FFF500"/>
<stop offset="1" stop-color="#FF0000"/>
</radialGradient>
<radialGradient id="paint5_radial_1_2" cx="0" cy="0" r="1" gradientUnits="userSpaceOnUse" gradientTransform="translate(40.4553 37.7844) rotate(-20.7857) scale(57.3073 22.1186)">
<stop stop-color="#FFF500"/>
<stop offset="1" stop-color="#FF0000"/>
</radialGradient>
<radialGradient id="paint6_radial_1_2" cx="0" cy="0" r="1" gradientUnits="userSpaceOnUse" gradientTransform="translate(36.7202 52.93) rotate(-108.79) scale(56.544 21.824)">
<stop stop-color="#FFF500"/>
<stop offset="1" stop-color="#FF0000"/>
</radialGradient>
<radialGradient id="paint7_radial_1_2" cx="0" cy="0" r="1" gradientUnits="userSpaceOnUse" gradientTransform="translate(56.9104 40.8815) rotate(70.8235) scale(56.9203 21.9692)">
<stop stop-color="#FFF500"/>
<stop offset="1" stop-color="#FF0000"/>
</radialGradient>
<clipPath id="clip0_1_2">
<rect width="94" height="94" fill="white"/>
</clipPath>
</defs>
</svg>
