<svg width="94" height="94" viewBox="0 0 94 94" fill="none" xmlns="http://www.w3.org/2000/svg">
<path d="M49.1474 59.8468C51.7834 56.4804 57.1525 59.0413 56.1952 63.2084L50.7998 86.6951C50.2266 89.19 47.4899 90.5119 45.1793 89.4099L35.7176 84.8968C33.407 83.7948 32.712 80.836 34.2902 78.8204L49.1474 59.8468Z" fill="url(#paint0_radial_1_12)"/>
<path d="M34.2585 49.2899C37.6569 51.8845 35.1619 57.2845 30.9833 56.3783L7.43249 51.2706C4.93069 50.728 3.57542 48.0076 4.64916 45.6837L9.04609 36.1675C10.1198 33.8436 13.0699 33.1125 15.1046 34.6659L34.2585 49.2899Z" fill="url(#paint1_radial_1_12)"/>
<path d="M59.8571 44.9097C56.4907 42.2736 59.0516 36.9046 63.2188 37.8619L86.7054 43.2573C89.2004 43.8304 90.5223 46.5672 89.4202 48.8778L84.9072 58.3395C83.8051 60.6501 80.8463 61.3451 78.8308 59.7668L59.8571 44.9097Z" fill="url(#paint2_radial_1_12)"/>
<path d="M44.9391 34.2057C42.303 37.5721 36.934 35.0112 37.8912 30.844L43.2866 7.35736C43.8598 4.86239 46.5966 3.54049 48.9072 4.64258L58.3689 9.15559C60.6794 10.2577 61.3745 13.2165 59.7962 15.232L44.9391 34.2057Z" fill="url(#paint3_radial_1_12)"/>
<path d="M39.6282 57.6981C43.8638 57.1141 45.9385 62.6891 42.3516 65.0162L22.1351 78.1322C19.9876 79.5255 17.1021 78.5709 16.2092 76.1717L12.5531 66.347C11.6602 63.9478 13.2196 61.339 15.7556 60.9894L39.6282 57.6981Z" fill="url(#paint4_radial_1_12)"/>
<path d="M54.4426 36.3466C50.207 36.9305 48.1323 31.3555 51.7192 29.0284L71.9357 15.9124C74.0832 14.5191 76.9687 15.4738 77.8616 17.873L81.5177 27.6976C82.4106 30.0968 80.8512 32.7056 78.3152 33.0552L54.4426 36.3466Z" fill="url(#paint5_radial_1_12)"/>
<path d="M36.5483 39.3879C37.0408 43.6351 31.4223 45.5891 29.1731 41.9528L16.4962 21.4582C15.1495 19.2811 16.1662 16.4168 18.5841 15.576L28.4853 12.1326C30.9033 11.2917 33.4778 12.907 33.7726 15.4499L36.5483 39.3879Z" fill="url(#paint6_radial_1_12)"/>
<path d="M57.5669 54.6549C57.0745 50.4076 62.6929 48.4537 64.9422 52.09L77.619 72.5846C78.9657 74.7617 77.949 77.6259 75.5311 78.4668L65.6299 81.9102C63.212 82.7511 60.6374 81.1358 60.3426 78.5929L57.5669 54.6549Z" fill="url(#paint7_radial_1_12)"/>
<path d="M43.2869 53.0232C43.0415 53.0232 42.8389 52.9486 42.6789 52.7992C42.5189 52.6392 42.4389 52.4419 42.4389 52.2072V43.6312L42.6469 43.9192L41.1589 44.9592C41.0309 45.0659 40.8762 45.1192 40.6949 45.1192C40.4816 45.1192 40.2896 45.0392 40.1189 44.8792C39.9589 44.7086 39.8789 44.5112 39.8789 44.2872C39.8789 44.0099 40.0176 43.7806 40.2949 43.5992L42.7269 41.9832C42.8229 41.9192 42.9242 41.8766 43.0309 41.8552C43.1482 41.8339 43.2549 41.8232 43.3509 41.8232C43.5962 41.8232 43.7935 41.9032 43.9429 42.0632C44.0922 42.2126 44.1669 42.4046 44.1669 42.6392V52.2072C44.1669 52.4419 44.0816 52.6392 43.9109 52.7992C43.7509 52.9486 43.5429 53.0232 43.2869 53.0232Z" fill="white"/>
<path d="M53.0759 51.5352C53.2892 51.5352 53.4652 51.6099 53.6039 51.7592C53.7532 51.8979 53.8279 52.0739 53.8279 52.2872C53.8279 52.5006 53.7532 52.6766 53.6039 52.8152C53.4652 52.9539 53.2892 53.0232 53.0759 53.0232H47.4599C47.2252 53.0232 47.0386 52.9539 46.8999 52.8152C46.7612 52.6766 46.6919 52.4899 46.6919 52.2552C46.6919 52.0419 46.7665 51.8499 46.9159 51.6792L50.4839 47.8232C50.9426 47.3326 51.2945 46.8472 51.5399 46.3672C51.7959 45.8872 51.9239 45.4659 51.9239 45.1032C51.9239 44.5166 51.7479 44.0419 51.3959 43.6792C51.0439 43.3166 50.5799 43.1352 50.0039 43.1352C49.7585 43.1352 49.5079 43.1939 49.2519 43.3112C49.0065 43.4179 48.7719 43.5672 48.5479 43.7592C48.3345 43.9406 48.1479 44.1539 47.9879 44.3992C47.8812 44.5486 47.7746 44.6446 47.6679 44.6872C47.5612 44.7299 47.4599 44.7512 47.3639 44.7512C47.1612 44.7512 46.9745 44.6819 46.8039 44.5432C46.6439 44.3939 46.5639 44.2232 46.5639 44.0312C46.5639 43.8819 46.6119 43.7379 46.7079 43.5992C46.8039 43.4606 46.9266 43.3166 47.0759 43.1672C47.3106 42.8792 47.5932 42.6232 47.9239 42.3992C48.2652 42.1646 48.6226 41.9832 48.9959 41.8552C49.3692 41.7272 49.7372 41.6632 50.0999 41.6632C50.8039 41.6632 51.4119 41.8019 51.9239 42.0792C52.4466 42.3566 52.8465 42.7459 53.1239 43.2472C53.4119 43.7486 53.5559 44.3406 53.5559 45.0232C53.5559 45.5992 53.3799 46.2392 53.0279 46.9432C52.6866 47.6366 52.2066 48.3192 51.5879 48.9912L49.1079 51.6952L48.9319 51.5352H53.0759Z" fill="white"/>
<defs>
<radialGradient id="paint0_radial_1_12" cx="0" cy="0" r="1" gradientUnits="userSpaceOnUse" gradientTransform="translate(47.0001 47) rotate(90) scale(50.5 50.49)">
<stop offset="0.0510413" stop-color="#FFF500"/>
<stop offset="1" stop-color="#FF0000"/>
</radialGradient>
<radialGradient id="paint1_radial_1_12" cx="0" cy="0" r="1" gradientUnits="userSpaceOnUse" gradientTransform="translate(47.0001 47) rotate(90) scale(50.5 50.49)">
<stop offset="0.0510413" stop-color="#FFF500"/>
<stop offset="1" stop-color="#FF0000"/>
</radialGradient>
<radialGradient id="paint2_radial_1_12" cx="0" cy="0" r="1" gradientUnits="userSpaceOnUse" gradientTransform="translate(47.0001 47) rotate(90) scale(50.5 50.49)">
<stop offset="0.0510413" stop-color="#FFF500"/>
<stop offset="1" stop-color="#FF0000"/>
</radialGradient>
<radialGradient id="paint3_radial_1_12" cx="0" cy="0" r="1" gradientUnits="userSpaceOnUse" gradientTransform="translate(47.0001 47) rotate(90) scale(50.5 50.49)">
<stop offset="0.0510413" stop-color="#FFF500"/>
<stop offset="1" stop-color="#FF0000"/>
</radialGradient>
<radialGradient id="paint4_radial_1_12" cx="0" cy="0" r="1" gradientUnits="userSpaceOnUse" gradientTransform="translate(47.0001 47) rotate(90) scale(50.5 50.49)">
<stop offset="0.0510413" stop-color="#FFF500"/>
<stop offset="1" stop-color="#FF0000"/>
</radialGradient>
<radialGradient id="paint5_radial_1_12" cx="0" cy="0" r="1" gradientUnits="userSpaceOnUse" gradientTransform="translate(47.0001 47) rotate(90) scale(50.5 50.49)">
<stop offset="0.0510413" stop-color="#FFF500"/>
<stop offset="1" stop-color="#FF0000"/>
</radialGradient>
<radialGradient id="paint6_radial_1_12" cx="0" cy="0" r="1" gradientUnits="userSpaceOnUse" gradientTransform="translate(47.0001 47) rotate(90) scale(50.5 50.49)">
<stop offset="0.0510413" stop-color="#FFF500"/>
<stop offset="1" stop-color="#FF0000"/>
</radialGradient>
<radialGradient id="paint7_radial_1_12" cx="0" cy="0" r="1" gradientUnits="userSpaceOnUse" gradientTransform="translate(47.0001 47) rotate(90) scale(50.5 50.49)">
<stop offset="0.0510413" stop-color="#FFF500"/>
<stop offset="1" stop-color="#FF0000"/>
</radialGradient>
</defs>
</svg>
