<svg width="94" height="94" viewBox="0 0 94 94" fill="none" xmlns="http://www.w3.org/2000/svg">
<g clip-path="url(#clip0_1_244)">
<g filter="url(#filter0_iii_1_244)">
<path d="M39.6282 57.698C43.8638 57.114 45.9385 62.689 42.3516 65.0161L22.1352 78.1321C19.9876 79.5254 17.1021 78.5708 16.2093 76.1716L12.5531 66.3469C11.6603 63.9477 13.2196 61.3389 15.7556 60.9893L39.6282 57.698Z" fill="url(#paint0_radial_1_244)"/>
<path d="M54.4426 36.3465C50.207 36.9304 48.1323 31.3554 51.7192 29.0283L71.9357 15.9123C74.0832 14.519 76.9687 15.4737 77.8616 17.8729L81.5177 27.6975C82.4106 30.0967 80.8512 32.7055 78.3152 33.0551L54.4426 36.3465Z" fill="url(#paint1_radial_1_244)"/>
<path d="M36.5483 39.3878C37.0408 43.635 31.4223 45.589 29.1731 41.9527L16.4962 21.4581C15.1496 19.281 16.1662 16.4167 18.5841 15.5759L28.4854 12.1325C30.9033 11.2916 33.4778 12.9069 33.7726 15.4498L36.5483 39.3878Z" fill="url(#paint2_radial_1_244)"/>
<path d="M57.567 54.6548C57.0745 50.4076 62.693 48.4536 64.9422 52.0899L77.619 72.5845C78.9657 74.7616 77.949 77.6259 75.5311 78.4667L65.6299 81.9101C63.212 82.751 60.6374 81.1357 60.3426 78.5928L57.567 54.6548Z" fill="url(#paint3_radial_1_244)"/>
<path d="M49.1785 59.838C51.8053 56.4644 57.1813 59.0106 56.2355 63.1803L50.9045 86.6817C50.3382 89.1782 47.605 90.5076 45.2914 89.4118L35.8174 84.9248C33.5038 83.829 32.8007 80.8722 34.3734 78.8523L49.1785 59.838Z" fill="url(#paint4_radial_1_244)"/>
<path d="M44.8936 34.2061C42.2668 37.5797 36.8907 35.0336 37.8366 30.8638L43.1676 7.36246C43.7339 4.86593 46.467 3.53654 48.7806 4.63229L58.2547 9.11934C60.5682 10.2151 61.2713 13.172 59.6986 15.1918L44.8936 34.2061Z" fill="url(#paint5_radial_1_244)"/>
<path d="M34.1967 48.8702C37.5129 51.5691 34.8513 56.889 30.7029 55.8534L7.32206 50.0167C4.83832 49.3967 3.56819 46.6355 4.71359 44.3461L9.40395 34.9711C10.5494 32.6816 13.5207 32.0425 15.5062 33.6584L34.1967 48.8702Z" fill="url(#paint6_radial_1_244)"/>
<path d="M59.9059 45.1416C56.5897 42.4427 59.2513 37.1228 63.3997 38.1584L86.7805 43.9951C89.2643 44.6151 90.5344 47.3763 89.389 49.6657L84.6986 59.0407C83.5532 61.3302 80.5819 61.9693 78.5964 60.3534L59.9059 45.1416Z" fill="url(#paint7_radial_1_244)"/>
</g>
<path d="M43.2869 53.0232C43.0416 53.0232 42.8389 52.9485 42.6789 52.7992C42.5189 52.6392 42.4389 52.4419 42.4389 52.2072V43.6312L42.6469 43.9192L41.1589 44.9592C41.0309 45.0659 40.8762 45.1192 40.6949 45.1192C40.4816 45.1192 40.2896 45.0392 40.1189 44.8792C39.9589 44.7085 39.8789 44.5112 39.8789 44.2872C39.8789 44.0099 40.0176 43.7805 40.2949 43.5992L42.7269 41.9832C42.8229 41.9192 42.9242 41.8765 43.0309 41.8552C43.1482 41.8339 43.2549 41.8232 43.3509 41.8232C43.5962 41.8232 43.7936 41.9032 43.9429 42.0632C44.0922 42.2125 44.1669 42.4045 44.1669 42.6392V52.2072C44.1669 52.4419 44.0816 52.6392 43.9109 52.7992C43.7509 52.9485 43.5429 53.0232 43.2869 53.0232Z" fill="white"/>
<path d="M53.0759 51.5352C53.2892 51.5352 53.4652 51.6099 53.6039 51.7592C53.7532 51.8979 53.8279 52.0739 53.8279 52.2872C53.8279 52.5005 53.7532 52.6765 53.6039 52.8152C53.4652 52.9539 53.2892 53.0232 53.0759 53.0232H47.4599C47.2252 53.0232 47.0386 52.9539 46.8999 52.8152C46.7612 52.6765 46.6919 52.4899 46.6919 52.2552C46.6919 52.0419 46.7666 51.8499 46.9159 51.6792L50.4839 47.8232C50.9426 47.3325 51.2946 46.8472 51.5399 46.3672C51.7959 45.8872 51.9239 45.4659 51.9239 45.1032C51.9239 44.5165 51.7479 44.0419 51.3959 43.6792C51.0439 43.3165 50.5799 43.1352 50.0039 43.1352C49.7586 43.1352 49.5079 43.1939 49.2519 43.3112C49.0066 43.4179 48.7719 43.5672 48.5479 43.7592C48.3346 43.9405 48.1479 44.1539 47.9879 44.3992C47.8812 44.5485 47.7746 44.6445 47.6679 44.6872C47.5612 44.7299 47.4599 44.7512 47.3639 44.7512C47.1612 44.7512 46.9746 44.6819 46.8039 44.5432C46.6439 44.3939 46.5639 44.2232 46.5639 44.0312C46.5639 43.8819 46.6119 43.7379 46.7079 43.5992C46.8039 43.4605 46.9266 43.3165 47.0759 43.1672C47.3106 42.8792 47.5932 42.6232 47.9239 42.3992C48.2652 42.1645 48.6226 41.9832 48.9959 41.8552C49.3692 41.7272 49.7372 41.6632 50.0999 41.6632C50.8039 41.6632 51.4119 41.8019 51.9239 42.0792C52.4466 42.3565 52.8466 42.7459 53.1239 43.2472C53.4119 43.7485 53.5559 44.3405 53.5559 45.0232C53.5559 45.5992 53.3799 46.2392 53.0279 46.9432C52.6866 47.6365 52.2066 48.3192 51.5879 48.9912L49.1079 51.6952L48.9319 51.5352H53.0759Z" fill="white"/>
</g>
<defs>
<filter id="filter0_iii_1_244" x="4.28864" y="2.645" width="85.5253" height="90.1541" filterUnits="userSpaceOnUse" color-interpolation-filters="sRGB">
<feFlood flood-opacity="0" result="BackgroundImageFix"/>
<feBlend mode="normal" in="SourceGraphic" in2="BackgroundImageFix" result="shape"/>
<feColorMatrix in="SourceAlpha" type="matrix" values="0 0 0 0 0 0 0 0 0 0 0 0 0 0 0 0 0 0 127 0" result="hardAlpha"/>
<feOffset dy="2"/>
<feGaussianBlur stdDeviation="4.1"/>
<feComposite in2="hardAlpha" operator="arithmetic" k2="-1" k3="1"/>
<feColorMatrix type="matrix" values="0 0 0 0 1 0 0 0 0 1 0 0 0 0 1 0 0 0 0.8 0"/>
<feBlend mode="normal" in2="shape" result="effect1_innerShadow_1_244"/>
<feColorMatrix in="SourceAlpha" type="matrix" values="0 0 0 0 0 0 0 0 0 0 0 0 0 0 0 0 0 0 127 0" result="hardAlpha"/>
<feOffset dy="-2"/>
<feGaussianBlur stdDeviation="0.8"/>
<feComposite in2="hardAlpha" operator="arithmetic" k2="-1" k3="1"/>
<feColorMatrix type="matrix" values="0 0 0 0 0 0 0 0 0 0 0 0 0 0 0 0 0 0 0.5 0"/>
<feBlend mode="normal" in2="effect1_innerShadow_1_244" result="effect2_innerShadow_1_244"/>
<feColorMatrix in="SourceAlpha" type="matrix" values="0 0 0 0 0 0 0 0 0 0 0 0 0 0 0 0 0 0 127 0" result="hardAlpha"/>
<feOffset dy="3"/>
<feGaussianBlur stdDeviation="1.6"/>
<feComposite in2="hardAlpha" operator="arithmetic" k2="-1" k3="1"/>
<feColorMatrix type="matrix" values="0 0 0 0 1 0 0 0 0 1 0 0 0 0 1 0 0 0 0.67 0"/>
<feBlend mode="normal" in2="effect2_innerShadow_1_244" result="effect3_innerShadow_1_244"/>
</filter>
<radialGradient id="paint0_radial_1_244" cx="0" cy="0" r="1" gradientUnits="userSpaceOnUse" gradientTransform="translate(47 46.9999) rotate(135) scale(49.4975 48.9657)">
<stop stop-color="#00FF0A"/>
<stop offset="1" stop-color="#013300"/>
</radialGradient>
<radialGradient id="paint1_radial_1_244" cx="0" cy="0" r="1" gradientUnits="userSpaceOnUse" gradientTransform="translate(47 46.9999) rotate(-45) scale(49.4975 48.9541)">
<stop stop-color="#00FF0A"/>
<stop offset="1" stop-color="#013300"/>
</radialGradient>
<radialGradient id="paint2_radial_1_244" cx="0" cy="0" r="1" gradientUnits="userSpaceOnUse" gradientTransform="translate(47 46.9999) rotate(-135) scale(49.4975 48.9533)">
<stop stop-color="#00FF0A"/>
<stop offset="1" stop-color="#013300"/>
</radialGradient>
<radialGradient id="paint3_radial_1_244" cx="0" cy="0" r="1" gradientUnits="userSpaceOnUse" gradientTransform="translate(47 46.9999) rotate(45) scale(49.4975 19.1043)">
<stop stop-color="#00FF0A"/>
<stop offset="1" stop-color="#013300"/>
</radialGradient>
<radialGradient id="paint4_radial_1_244" cx="0" cy="0" r="1" gradientUnits="userSpaceOnUse" gradientTransform="translate(47 47) rotate(90) scale(43 42.538)">
<stop stop-color="#FF0000"/>
<stop offset="1" stop-color="#330000"/>
<stop offset="1" stop-color="#610000"/>
</radialGradient>
<radialGradient id="paint5_radial_1_244" cx="0" cy="0" r="1" gradientUnits="userSpaceOnUse" gradientTransform="translate(47 47) rotate(-90) scale(43 42.528)">
<stop stop-color="#FF0000"/>
<stop offset="1" stop-color="#610000"/>
</radialGradient>
<radialGradient id="paint6_radial_1_244" cx="0" cy="0" r="1" gradientUnits="userSpaceOnUse" gradientTransform="translate(47 47) rotate(180) scale(43 42.5272)">
<stop stop-color="#FF0000"/>
<stop offset="1" stop-color="#610000"/>
</radialGradient>
<radialGradient id="paint7_radial_1_244" cx="0" cy="0" r="1" gradientUnits="userSpaceOnUse" gradientTransform="translate(47 47) scale(43 16.5965)">
<stop offset="0.00937462" stop-color="#FF0000"/>
<stop offset="1" stop-color="#610000"/>
</radialGradient>
<clipPath id="clip0_1_244">
<rect width="94" height="94" fill="white"/>
</clipPath>
</defs>
</svg>
